# xmcd
#
# Track frame offsets: 
#        150
#        17729
#        34395
#        49982
#        68079
#        85078
#        99597
#        120389
#        143235
#        156827
#        175509
#        189689
#        210871
#        234957
#        263320
#        280602
#        298140
#        314129
#        334353
#
# Disc length: 4702 seconds
#
# Revision: 0
# Processed by: cddbd v1.5.2PL0 Copyright (c) Steve Scherf et al.
# Submitted via: ExactAudioCopy v1.3
#
DISCID=0c125c13
DTITLE=Fathead - 20 Years Deep: The Very Best Of Fathead 1992-2012
DYEAR=2012
DGENRE=Modern Electric Blues
TTITLE0=Somebody Else's But Mine
TTITLE1=Tell Me Why
TTITLE2=She's Trouble
TTITLE3=Shame On Ya
TTITLE4=One Day The Sun Will Shine
TTITLE5=Blues Weather
TTITLE6=Hooked On Your Love (Feat. Little Mack Simmons)
TTITLE7=First Class Riff-Raff
TTITLE8=Real Crazy Mama
TTITLE9=The Sweetest Sound
TTITLE10=Walk Backwards
TTITLE11=Just Another Day
TTITLE12=Building Full Of Blues
TTITLE13=Lay It On The Line
TTITLE14=Fire In The Hole
TTITLE15=She's Got The Look
TTITLE16=Monkey Time
TTITLE17=You're So Special (Feat. Little Mack Simmons)
TTITLE18=Number Nine Train
EXTD=
EXTT0=
EXTT1=
EXTT2=
EXTT3=
EXTT4=
EXTT5=
EXTT6=
EXTT7=
EXTT8=
EXTT9=
EXTT10=
EXTT11=
EXTT12=
EXTT13=
EXTT14=
EXTT15=
EXTT16=
EXTT17=
EXTT18=
PLAYORDER=
